<svg xmlns="http://www.w3.org/2000/svg" xmlns:xlink="http://www.w3.org/1999/xlink" id="Layer_1" x="0" y="0" enable-background="new 9.7 168.6 592.6 592.6" version="1.1" viewBox="9.7 168.6 592.6 592.6" xml:space="preserve"><path fill="#333" d="M306,168.6C142.4,168.6,9.7,301.3,9.7,464.9S142.4,761.2,306,761.2s296.3-132.7,296.3-296.3	S469.6,168.6,306,168.6z M306,737.6c-150.7,0-272.7-122.1-272.7-272.7s122-272.7,272.7-272.7s272.7,122,272.7,272.7	S456.7,737.6,306,737.6z"/><path fill="#333" d="M306,168.6C142.4,168.6,9.7,301.3,9.7,464.9S142.4,761.2,306,761.2s296.3-132.7,296.3-296.3	S469.6,168.6,306,168.6z" display="none"/><g><path fill="#333" d="M270.1,452.5c-5.9-35-36.3-61.8-73-61.8c-40.9,0-74.1,33.2-74.1,74.1s33.2,74.1,74.1,74.1 c36.6,0,67.1-26.8,73-61.8h219v-24.7L270.1,452.5L270.1,452.5z M197.1,514.3c-27.2,0-49.4-22.2-49.4-49.4 c0-27.2,22.2-49.4,49.4-49.4s49.4,22.2,49.4,49.4C246.5,492.1,224.3,514.3,197.1,514.3z"/><rect width="68" height="24.7" x="421" y="499.2" fill="#333"/></g></svg>